<svg xmlns="http://www.w3.org/2000/svg" xmlns:xlink="http://www.w3.org/1999/xlink" id="Livello_1" x="0px" y="0px" viewBox="0 0 275.8 60" style="enable-background:new 0 0 275.8 60;" xml:space="preserve"><style type="text/css">	.st0{fill-rule:evenodd;clip-rule:evenodd;fill:#FFFFFF;}</style><g>	<path id="barrio_tropical" class="st0" d="M42.7,14.6l0.2-0.2c1.1-1,2.5-1.5,4-1.6h2.3l-0.1,0.3c-0.2,0.9-0.5,1.8-1.1,2.5  c0.2,0.3,0.5,0.6,0.7,1c2.4-2.7,2.2-6.9-0.5-9.3c-1.2-1.1-2.8-1.7-4.4-1.7h-5.1c-2.9,0-5.2-2.3-5.4-5.2h-1.2  c0.1,3.2,2.6,5.9,5.8,6.3h0.2v0.2c0.3,2.6,2.1,4.7,4.6,5.5l0.5,0.2l-0.5,0.3c-0.3,0.2-0.5,0.4-0.8,0.6c-0.4,0.4-0.8,0.8-1.1,1.3  c-0.9,1.5-1.3,3.2-1.3,4.9c0,1.2-0.1,2.3-0.3,3.5c-0.1,0.3-0.1,0.7-0.2,1.1c-0.8,4.4-2.6,8.5-5.1,12.1L33.4,37v-0.8  c-0.1-1.4-0.3-2.9-0.7-4.2v-0.1l0.1-0.1c1.1-2,1.9-4,2.6-6.1c0.1-0.4,0.2-0.8,0.3-1.1c0.2-0.7,0.3-1.4,0.4-2.1  c0.2-1.8-0.2-3.5-1.3-5c-1-1.4-2.6-2.3-4.3-2.5c-0.2,0-0.4,0-0.6,0c-0.3,0-0.7,0-1,0.1L28,15.2l0.7-0.6c1.8-1.7,3.8-3,6.1-3.9  l0.4-0.2l-0.3-1.3h-0.3c-0.9-0.1-1.8-0.4-2.5-0.9s-1.3-1.1-1.7-1.8H29l0.2,0.4c0,0.1,0.1,0.1,0.2,0.4L30,7.8l-0.6-0.1  c-1.2-0.2-2.5-0.3-3.7-0.3C12.5,7.5,1.8,18.2,1.9,31.4C1.9,37.1,4,42.7,7.8,47L8,47.2L7,49h2.8l0.1,0.1c3.4,3.1,7.7,5.1,12.2,5.8  h0.1l0.1,0.1c0.8,1.6,1.7,3.1,2.8,4.5h1.6c-0.3-1.3-0.6-2.7-0.8-4.1v-0.3h0.3c13.2-0.4,23.6-11.4,23.3-24.6  c-0.2-5.9-2.5-11.6-6.6-15.9L42.7,14.6z M39.3,7.1l-0.1-0.3h4.5c2.6,0,4.9,1.9,5.3,4.5l0.1,0.3h-4.5C42,11.6,39.8,9.7,39.3,7.1  L39.3,7.1z M23.4,8.7c0.7-0.1,1.5-0.1,2.3-0.1c2.1,0,4.2,0.3,6.2,0.9c0.3,0.2,0.5,0.3,0.8,0.4l0.5,0.2l-0.5,0.3  c-3,1.6-5.6,3.9-7.6,6.7l-0.6,0.7l0.1-0.9c0.2-3.4-0.3-6-1.3-7.8L23,8.7H23.4z M21.6,9l1-0.2l0.1,0.1c1.3,1.9,1.8,5.1,1.3,9.6  c-1,1.6-1.9,3.2-2.6,4.9l-2.8,4.9l-0.1-0.9c-0.3-2.5,0-5,0.7-7.4c0.9-3,2.3-8.5,2.4-10.9V9z M12.5,12.9C15,11,17.9,9.7,21,9.1  L21.3,9v0.4c-0.1,1.3-0.6,4.3-2.4,10.7c-0.2,0.7-0.3,1.3-0.5,2L18.2,23l-0.4-0.8c-0.9-2-3.1-6.8-5.5-8.7L12,13.3L12.5,12.9z   M10.6,14.5L10.6,14.5c0.4-0.4,0.8-0.7,1.2-1l0.2-0.1l0.2,0.1c3,2.1,5.8,9.3,6.2,10.3c-0.2,1.7-0.1,3.4,0.1,5.2L18,29.8l-0.3-0.3  c-2.7-2.8-7.2-8.4-7.1-14.8V14.5z M4.4,23.9c1.1-3.3,3-6.3,5.4-8.7l0.5-0.5v0.6c0.3,3.7,1.6,7.2,3.8,10.2l0.6,0.9l-1-0.4  c-2.2-1.1-4.6-1.8-7.1-1.9c-0.6,0-1.3,0.1-1.9,0.3l-0.5,0.2L4.4,23.9z M3.6,26.9C3.7,26.3,3.8,25.7,4,25v-0.1l0.1-0.1  c0.8-0.4,1.6-0.6,2.4-0.5c3.5,0,8.1,2.4,8.6,2.8c0.7,0.9,1.5,1.8,2.4,2.7l0.2,0.2L17,31.2h-0.2C16,31.1,15.1,31,14.1,31  c-1.2-0.1-2.6-0.1-4-0.4c-2.5-0.5-4.7-1.6-6.6-3.4l-0.1-0.1L3.6,26.9z M3.4,34.5c-0.2-1-0.2-2.1-0.2-3.2c0-1.1,0.1-2.2,0.3-3.3  l0.1-0.5L4,27.8c1.6,1.4,3.6,2.4,5.7,2.9l1.3,0.2l-1.3,0.3c-2.2,0.5-4.2,1.7-5.7,3.4l-0.4,0.5L3.4,34.5z M4.8,39.8  c-0.5-1.3-0.9-2.7-1.2-4.1v-0.1l0.1-0.1c1.6-2.1,3.8-3.5,6.4-4c0.9-0.2,1.8-0.3,2.7-0.3c1.2,0,2.5,0.2,3.7,0.5l0.4,0.1l-1.2,2.1  h-0.1c-1.8,0.2-3.5,1-4.7,2.4c-3,3.3-5,3.7-5.7,3.7H4.8V39.8z M8.3,45.8c-1.3-1.6-2.4-3.3-3.2-5.1L5,40.3h0.4  c0.9-0.1,2.9-0.7,5.6-3.8c1-1.1,2.3-1.9,3.8-2.2l0.6-0.1l-6.8,12L8.3,45.8z M9,47.8l16.2-28.6c1-1.8,2.8-2.9,4.8-3  c0.2,0,0.4,0,0.6,0c1.4,0.2,2.6,0.9,3.4,2c0.9,1.2,1.2,2.7,1,4.1c-0.2,1.2-0.4,2.3-0.8,3.4c-0.1,0.4-0.3,0.8-0.4,1.2  c-0.3,0.9-0.7,1.8-1.2,2.7c-0.2,0.4-0.4,0.7-0.6,1.1c-2.4,4.8-5.7,9-9.7,12.6c-0.2,0.2-0.5,0.4-0.7,0.6c-0.3,0.3-0.7,0.5-1,0.8  c-0.5,0.4-1.1,0.7-1.6,1c-1.1,0.6-2.2,1.1-3.4,1.5l14-19.5l-0.4-0.3l-14.4,20c-0.9,0.2-1.9,0.4-2.8,0.4h-0.2l13.4-20.1l-0.4-0.3  L11.3,47.8H9L9,47.8z M16.2,51.9c-1.4-0.7-2.8-1.5-4-2.4L11.6,49h0.8c1.1,0,2.3-0.2,3.4-0.5l0.3-0.1v0.4c0.1,1,0.2,1.9,0.5,2.8  l0.2,0.6L16.2,51.9z M21.1,53.6c-1.3-0.3-2.5-0.7-3.8-1.2h-0.1v-0.1c-0.4-1.2-0.7-2.5-0.7-3.7v-0.2l0.2-0.1  c0.9-0.3,1.7-0.7,2.5-1.1l0.3-0.2l0.1,0.4c0.5,2,1.1,4,1.9,5.9l0.2,0.5L21.1,53.6z M24.5,53.7c0,0.6,0.1,1.2,0.2,1.8l0.1,0.9h-0.5  c-0.1-0.1-0.4-0.7-0.4-0.7c-0.3-0.6-0.6-1.2-0.9-1.8c-1.1-2.3-1.9-4.8-2.4-7.3v-0.2l0.2-0.1c0.6-0.4,1.2-0.8,1.8-1.3  c0.2-0.2,0.4-0.4,0.7-0.5c3.7-3.2,6.7-7.1,9.1-11.3l0.4-0.6l0.2,0.7c0.4,1.5,0.5,3,0.4,4.5c-1.9,2.2-4.3,4-7,5.1L26,43.3  c-0.4,1.1-0.7,2.2-0.9,3.3c-0.1,0.5-0.2,1-0.2,1.4C24.4,49.8,24.4,51.7,24.5,53.7L24.5,53.7z M25.6,49.8L25.6,49.8  c0-2,0.4-4,1.1-5.9v-0.1h0.1c1.3-0.5,2.4-1.2,3.5-2l2.5-1.9l1.8-2.2c3.1-4.2,5.1-9.1,5.9-14.3v-0.1l0.1-0.1c0.5-0.3,1-0.6,1.5-0.8  l0.3-0.2l0.1,0.3c0.5,1.1,1.5,4,0.9,6.5c-2,3.1-5,6-8.4,9.1L32.8,40l-2.1,2.3c-2.1,2.4-3.6,5.2-4.5,8.2L25.5,52L25.6,49.8  L25.6,49.8z M37.7,50.5c-3.4,2.2-7.4,3.4-11.5,3.5h-0.3l0.1-1l0.1-0.1c2.5-1.7,4.6-3.1,8.7-3.1c0.9,0,1.8,0.1,2.7,0.2l0.8,0.1  L37.7,50.5z M45.1,42.9c-1.6,2.7-3.7,5-6.2,6.8l-0.1,0.1h-0.1c-1.2-0.2-2.5-0.3-3.7-0.3c-3-0.1-5.9,0.9-8.2,2.7l-0.6,0.4l0.1-0.7  c0.4-1.7,1-3.4,1.8-5c3-3.1,8-3.3,9.4-3.3c2.5,0,5-0.3,7.3-1.1l0.7-0.3L45.1,42.9z M47.9,35.5c-0.4,2.2-1.2,4.3-2.2,6.3  c-2.2,1.1-5.8,1.5-8.3,1.5c-2.8,0-5.6,0.7-8,2.1l-1.2,1L29,45c1.1-1.8,2.5-3.5,4.1-4.9c0.9-0.2,1.6-0.4,2.5-0.6  c1.3-0.3,2.9-0.7,5.4-1.3c2.3-0.6,4.4-1.7,6.3-3.1l0.6-0.4L47.9,35.5z M48.2,30.3c0,0.3,0,0.7,0,1c0,1-0.1,1.9-0.2,2.9v0.1v0.1  c-2,1.6-4.4,2.9-6.9,3.5s-4.1,1-5.4,1.3l-2,0.5l0.8-0.7c1.5-1.3,2.8-2.6,4.2-3.9c2.1-1.4,4.4-2.6,6.7-3.6c0.9-0.4,1.7-1,2.5-1.7  l0.4-0.4L48.2,30.3z M47.6,26c0.2,0.9,0.4,1.8,0.5,2.8v0.1V29c-0.8,0.9-1.8,1.7-2.9,2.2c-1.5,0.7-2.6,1.2-3.9,2l-2.1,1.4l1.8-1.8  c1.1-1.2,2.1-2.4,3-3.7c1.3-0.8,2.4-1.8,3.3-3.1l0.4-0.4L47.6,26z M46.2,21.8l0.4,1c0.3,0.7,0.5,1.4,0.7,2.1V25l-0.1,0.1  c-0.7,0.9-1.4,1.7-2.2,2.5l-1,0.8l0.6-1.1c0.7-1.4,1.2-2.9,1.4-4.5L46.2,21.8z M45.4,20.2c0.2,0.3,0.4,0.7,0.5,1.1  c-0.1,1.9-0.6,3.8-1.4,5.6l-0.5,1v-1.1c-0.1-1.6-0.5-3.2-1.2-4.6L42.7,22l0.2-0.1c0.7-0.4,1.4-1,2-1.6l0.3-0.3L45.4,20.2z M45,19.6  l-0.1,0.2c-1.1,1.2-2.4,2.1-3.8,2.7l-0.5,0.3l0.1-0.5c0.1-0.8,0.2-1.6,0.2-2.4c0-1.4,0.3-2.7,0.9-3.9l0.2-0.3l0.3,0.3  c1,1.1,2,2.3,2.8,3.6L45,19.6z M77.5,24.3c-1.5,0-2.9,0.4-4.2,1.2c-1.2,0.8-2.2,1.9-2.7,3.3V17.5h-1v23h1v-4.4  c0.6,1.4,1.5,2.5,2.7,3.3c1.3,0.8,2.7,1.2,4.2,1.2c1.4,0,2.8-0.3,4-1s2.2-1.7,2.8-2.9c1.4-2.6,1.4-5.8,0-8.4  c-0.7-1.2-1.6-2.2-2.8-2.9C80.3,24.6,78.9,24.3,77.5,24.3L77.5,24.3L77.5,24.3z M77.5,39.6c-1.2,0-2.4-0.3-3.5-0.9  c-1-0.6-1.9-1.5-2.5-2.6c-0.6-1.2-0.9-2.4-0.9-3.7s0.3-2.6,0.9-3.7s1.4-1.9,2.5-2.5c2.2-1.2,4.8-1.2,7,0c1,0.6,1.9,1.5,2.5,2.5  c0.6,1.1,0.9,2.4,0.9,3.7c0,1.3-0.3,2.6-0.9,3.7c-0.6,1.1-1.4,1.9-2.5,2.6C80,39.3,78.7,39.6,77.5,39.6L77.5,39.6z M95.7,24.3  c-1.2,0-2.4,0.2-3.5,0.6s-2,1-2.8,1.7l0.6,0.7c0.7-0.7,1.6-1.2,2.5-1.6c1-0.4,2.1-0.6,3.2-0.6c1.3-0.1,2.7,0.3,3.7,1.2  c0.9,1,1.3,2.3,1.3,3.6v1.6h-5.9c-1.6-0.1-3.2,0.3-4.5,1.2c-1.7,1.6-1.9,4.3-0.3,6.1c0.1,0.1,0.3,0.3,0.4,0.4  c1.2,0.9,2.7,1.3,4.2,1.2c1.3,0,2.5-0.3,3.7-0.9c1-0.6,1.8-1.4,2.3-2.4v3.2h1V30.1c0.1-1.6-0.4-3.1-1.5-4.3  C98.9,24.7,97.3,24.2,95.7,24.3L95.7,24.3L95.7,24.3z M94.7,39.7c-1.2,0.1-2.5-0.3-3.5-1c-0.8-0.6-1.3-1.7-1.3-2.7s0.4-1.9,1.2-2.6  c1.1-0.7,2.4-1.1,3.7-0.9h5.9v3.3C99.8,38.3,97.3,39.9,94.7,39.7L94.7,39.7L94.7,39.7z M109.3,28.3v-3.9h-1v16.1h1V32  c-0.1-1.8,0.5-3.5,1.6-4.9c1.1-1.2,2.7-1.9,4.4-1.8h0.3v-1c-1.4,0-2.8,0.3-3.9,1C110.6,26,109.7,27,109.3,28.3L109.3,28.3  L109.3,28.3z M121,28.3v-3.9h-1v16.1h1V32c-0.1-1.8,0.5-3.5,1.6-4.9c1.1-1.2,2.7-1.9,4.4-1.8h0.3v-1c-1.4,0-2.8,0.3-3.9,1  C122.3,26,121.5,27,121,28.3L121,28.3L121,28.3z M131.8,40.5h1V24.4h-1V40.5L131.8,40.5z M132.3,20.2c0.6,0,1-0.5,1-1  c0-0.3-0.1-0.5-0.3-0.7s-0.4-0.3-0.7-0.3c-0.6,0-1,0.4-1,1l0,0c0,0.3,0.1,0.5,0.3,0.7C131.8,20.1,132,20.2,132.3,20.2L132.3,20.2  L132.3,20.2z M145.8,40.5c1.4,0,2.8-0.3,4.1-1c1.2-0.7,2.2-1.7,2.8-2.9c1.4-2.6,1.4-5.8,0-8.4c-0.7-1.2-1.6-2.2-2.8-2.9  c-2.5-1.4-5.6-1.4-8.1,0c-1.2,0.7-2.2,1.7-2.8,2.9c-1.4,2.6-1.4,5.8,0,8.4c0.7,1.2,1.6,2.2,2.8,2.9  C142.9,40.2,144.3,40.6,145.8,40.5L145.8,40.5L145.8,40.5z M145.8,39.6c-1.2,0-2.4-0.3-3.5-0.9c-1-0.6-1.9-1.5-2.5-2.6  c-0.6-1.2-0.9-2.4-0.9-3.7s0.3-2.6,0.9-3.7c0.6-1.1,1.4-1.9,2.5-2.5c2.2-1.2,4.8-1.2,7,0c1,0.6,1.9,1.5,2.5,2.5  c0.6,1.1,0.9,2.4,0.9,3.7c0,1.3-0.3,2.6-0.9,3.7c-0.6,1.1-1.4,1.9-2.5,2.6C148.2,39.3,147,39.6,145.8,39.6L145.8,39.6z M173.6,38.7  c-0.7,0.6-1.6,1-2.6,1c-0.9,0.1-1.7-0.3-2.4-0.9c-0.6-0.7-0.9-1.6-0.8-2.5v-11h5.3v-0.9h-5.3v-3.5h-1v3.5h-3v0.9h3v11.1  c-0.1,1.1,0.3,2.2,1.1,3s1.9,1.2,3,1.1c0.6,0,1.2-0.1,1.8-0.3c0.5-0.2,1-0.4,1.4-0.8L173.6,38.7z M179.7,28.3v-3.9h-1v16.1h1V32  c-0.1-1.8,0.5-3.5,1.6-4.9c1.1-1.2,2.7-1.9,4.4-1.8h0.3v-1c-1.4,0-2.8,0.3-3.9,1C180.9,26,180.1,27,179.7,28.3L179.7,28.3  L179.7,28.3z M196.3,40.5c1.4,0,2.8-0.3,4.1-1c1.2-0.7,2.2-1.7,2.8-2.9c1.4-2.6,1.4-5.8,0-8.4c-0.7-1.2-1.6-2.2-2.8-2.9  c-2.5-1.4-5.6-1.4-8.1,0c-1.2,0.7-2.2,1.7-2.8,2.9c-1.4,2.6-1.4,5.8,0,8.4c0.7,1.2,1.6,2.2,2.8,2.9S194.9,40.6,196.3,40.5  L196.3,40.5L196.3,40.5z M196.3,39.6c-1.2,0-2.4-0.3-3.5-0.9c-1-0.6-1.9-1.5-2.5-2.6c-0.6-1.2-0.9-2.4-0.9-3.7s0.3-2.6,0.9-3.7  c0.6-1.1,1.4-1.9,2.5-2.5c2.2-1.2,4.8-1.2,7,0c1,0.6,1.9,1.5,2.5,2.5c0.6,1.1,0.9,2.4,0.9,3.7c0,1.3-0.3,2.6-0.9,3.7  c-0.6,1.1-1.4,1.9-2.5,2.6C198.8,39.3,197.6,39.6,196.3,39.6L196.3,39.6z M217.2,24.3c-1.5,0-2.9,0.4-4.2,1.2  c-1.2,0.8-2.2,2-2.7,3.3v-4.4h-1v22.1h1V36.2c0.6,1.3,1.5,2.4,2.7,3.2s2.7,1.2,4.2,1.2c1.4,0,2.8-0.3,4-1s2.2-1.7,2.8-2.9  c0.7-1.3,1.1-2.7,1-4.2c0-1.5-0.3-2.9-1-4.2c-0.7-1.2-1.6-2.2-2.8-2.9C220,24.6,218.6,24.2,217.2,24.3L217.2,24.3L217.2,24.3z   M217.2,39.6c-1.2,0-2.4-0.3-3.5-0.9c-1-0.6-1.9-1.5-2.5-2.5c-0.6-1.1-0.9-2.4-0.9-3.7s0.3-2.6,0.9-3.7c0.6-1.1,1.4-1.9,2.5-2.6  c2.2-1.2,4.8-1.2,7,0c1,0.6,1.9,1.5,2.5,2.6c0.6,1.2,0.9,2.4,0.9,3.7c0,1.3-0.3,2.6-0.9,3.7c-0.6,1.1-1.4,1.9-2.5,2.5  C219.6,39.3,218.4,39.6,217.2,39.6L217.2,39.6z M230.1,40.5h1V24.4h-1V40.5L230.1,40.5z M230.6,20.2c0.6,0,1-0.5,1-1  c0-0.3-0.1-0.5-0.3-0.7s-0.4-0.3-0.7-0.3c-0.6,0-1,0.4-1,1l0,0c0,0.3,0.1,0.5,0.3,0.7C230.1,20.1,230.3,20.2,230.6,20.2L230.6,20.2  L230.6,20.2z M244.2,40.5c1.2,0,2.3-0.2,3.4-0.7c1-0.4,1.9-1.2,2.6-2.1l-0.8-0.6c-0.6,0.8-1.3,1.4-2.2,1.8c-0.9,0.4-1.9,0.6-3,0.6  c-1.3,0-2.5-0.3-3.6-0.9c-1.1-0.6-1.9-1.5-2.5-2.6c-0.6-1.2-0.9-2.4-0.9-3.7s0.3-2.6,0.9-3.7c0.6-1.1,1.4-1.9,2.5-2.5  s2.3-0.9,3.6-0.9c1,0,2,0.2,3,0.6c0.9,0.4,1.7,1,2.2,1.8l0.8-0.7c-0.7-0.9-1.5-1.6-2.6-2.1s-2.2-0.7-3.4-0.7c-1.4,0-2.9,0.3-4.1,1  c-1.2,0.7-2.2,1.7-2.8,2.9c-1.4,2.6-1.4,5.8,0,8.4c0.7,1.2,1.6,2.2,2.8,2.9C241.3,40.2,242.7,40.6,244.2,40.5L244.2,40.5z   M260.3,24.3c-1.2,0-2.4,0.2-3.5,0.6s-2,1-2.8,1.7l0.6,0.7c0.7-0.7,1.6-1.2,2.5-1.6c1-0.4,2.1-0.6,3.2-0.6c1.3-0.1,2.7,0.3,3.7,1.2  c0.9,1,1.3,2.3,1.3,3.6v1.6h-5.9c-1.6-0.1-3.2,0.3-4.5,1.2c-1.7,1.6-1.9,4.3-0.3,6.1c0.1,0.1,0.3,0.3,0.4,0.4  c1.2,0.9,2.7,1.3,4.2,1.2c1.3,0,2.5-0.3,3.7-0.9c1-0.6,1.8-1.4,2.3-2.4v3.2h1V30.1c0.1-1.6-0.4-3.1-1.5-4.3  C263.5,24.7,261.9,24.2,260.3,24.3L260.3,24.3z M259.3,39.7c-1.2,0.1-2.5-0.3-3.5-1c-0.8-0.6-1.3-1.7-1.3-2.7s0.4-1.9,1.2-2.6  c1.1-0.7,2.4-1.1,3.7-0.9h5.9v3.3C264.3,38.3,261.9,39.9,259.3,39.7L259.3,39.7L259.3,39.7z M272.9,40.5h1v-23h-1V40.5z"></path></g></svg>